<svg width="77" height="77" viewBox="0 0 77 77" fill="none" xmlns="http://www.w3.org/2000/svg">
<path d="M61.8406 22.3781L44.9969 5.53437C44.5156 5.05312 44.0344 4.8125 43.3125 4.8125H19.25C16.6031 4.8125 14.4375 6.97812 14.4375 9.625V67.375C14.4375 70.0219 16.6031 72.1875 19.25 72.1875H57.75C60.3969 72.1875 62.5625 70.0219 62.5625 67.375V24.0625C62.5625 23.3406 62.3219 22.8594 61.8406 22.3781ZM43.3125 10.5875L56.7875 24.0625H43.3125V10.5875ZM57.75 67.375H19.25V9.625H38.5V24.0625C38.5 26.7094 40.6656 28.875 43.3125 28.875H57.75V67.375Z" fill="#9C9C9C"/>
<path d="M47.6221 51.839C44.9247 49.0935 41.2455 47.5198 37.3209 47.5198C35.3988 47.5174 33.4955 47.8998 31.7235 48.6445C29.9514 49.3892 28.3464 50.4811 27.0029 51.8559C26.8331 52.0243 26.6984 52.2247 26.6067 52.4456C26.515 52.6665 26.4681 52.9034 26.4688 53.1426C26.4694 53.3817 26.5176 53.6184 26.6105 53.8387C26.7034 54.0591 26.8392 54.2588 27.01 54.4263C27.1808 54.5937 27.3832 54.7255 27.6053 54.814C27.8275 54.9026 28.0651 54.9461 28.3042 54.942C28.5433 54.9379 28.7793 54.8864 28.9983 54.7903C29.2173 54.6942 29.4151 54.5556 29.58 54.3825C30.5875 53.3505 31.7916 52.5309 33.1211 51.9721C34.4507 51.4133 35.8787 51.1267 37.3209 51.1292C38.7595 51.1265 40.1841 51.4114 41.511 51.9672C42.8379 52.5229 44.0402 53.3384 45.0474 54.3656C45.211 54.5441 45.4089 54.6879 45.6293 54.7883C45.8496 54.8887 46.0879 54.9438 46.33 54.9502C46.5721 54.9566 46.813 54.9142 47.0383 54.8255C47.2637 54.7369 47.4689 54.6038 47.6417 54.4342C47.8146 54.2646 47.9515 54.0619 48.0444 53.8383C48.1373 53.6147 48.1842 53.3746 48.1824 53.1325C48.1805 52.8903 48.13 52.651 48.0337 52.4288C47.9375 52.2066 47.7975 52.006 47.6221 51.839Z" fill="#9C9C9C"/>
<path d="M31.2791 36.2989C30.9044 36.1529 30.5042 36.0836 30.1022 36.095C29.3195 36.1171 28.5763 36.4436 28.0305 37.005C27.4848 37.5664 27.1794 38.3186 27.1794 39.1016C27.1794 39.8846 27.4848 40.6367 28.0305 41.1981C28.5763 41.7595 29.3195 42.086 30.1022 42.1082C30.5042 42.1195 30.9044 42.0502 31.2791 41.9042C31.6538 41.7582 31.9954 41.5386 32.2838 41.2583C32.5722 40.978 32.8014 40.6427 32.9579 40.2722C33.1144 39.9018 33.1951 39.5037 33.1951 39.1016C33.1951 38.6994 33.1144 38.3013 32.9579 37.9309C32.8014 37.5605 32.5722 37.2252 32.2838 36.9449C31.9954 36.6645 31.6538 36.4449 31.2791 36.2989Z" fill="#9C9C9C"/>
<path d="M45.7166 36.2989C45.3419 36.1529 44.9417 36.0836 44.5397 36.095C43.757 36.1171 43.0138 36.4436 42.468 37.005C41.9223 37.5664 41.6169 38.3186 41.6169 39.1016C41.6169 39.8846 41.9223 40.6367 42.468 41.1981C43.0138 41.7595 43.757 42.086 44.5397 42.1082C44.9417 42.1195 45.3419 42.0502 45.7166 41.9042C46.0913 41.7582 46.4329 41.5386 46.7213 41.2583C47.0097 40.978 47.2389 40.6427 47.3954 40.2722C47.5519 39.9018 47.6326 39.5037 47.6326 39.1016C47.6326 38.6994 47.5519 38.3013 47.3954 37.9309C47.2389 37.5605 47.0097 37.2252 46.7213 36.9449C46.4329 36.6645 46.0913 36.4449 45.7166 36.2989Z" fill="#9C9C9C"/>
</svg>
