<svg width="220" height="31" viewBox="0 0 220 31" fill="none" xmlns="http://www.w3.org/2000/svg">
<path d="M14.9942 18.5241V13.7095H27.704V25.5421C26.2759 27.0517 24.5283 28.235 22.461 29.0918C20.3937 29.935 18.272 30.3567 16.0959 30.3567C14.3142 30.3567 12.5869 30.0575 10.9141 29.459C9.24119 28.847 7.70433 27.9698 6.30347 26.8273C4.56259 25.4128 3.19573 23.7264 2.20289 21.7679C1.21004 19.7958 0.713623 17.6945 0.713623 15.464C0.713623 13.7231 1.02644 12.0503 1.65206 10.4454C2.27769 8.82693 3.18213 7.34446 4.36538 5.998C5.84785 4.31153 7.58872 2.99907 9.58801 2.06063C11.5873 1.10859 13.7566 0.632568 16.0959 0.632568C18.272 0.632568 20.3869 1.06099 22.4406 1.91782C24.5079 2.77466 26.2623 3.95111 27.704 5.44718L23.2362 9.46615C22.3794 8.47331 21.3049 7.69128 20.0129 7.12005C18.7208 6.53523 17.4152 6.24281 16.0959 6.24281C14.5182 6.24281 13.029 6.66443 11.6281 7.50767C10.2408 8.3509 9.13919 9.48655 8.32315 10.9146C7.47992 12.3699 7.0583 13.8863 7.0583 15.464C7.0583 17.0825 7.46632 18.6058 8.28235 20.0338C9.09839 21.4619 10.2068 22.6043 11.6077 23.4612C12.9814 24.318 14.4774 24.7464 16.0959 24.7464C17.0751 24.7464 18.0476 24.59 19.0132 24.2772C19.9789 23.9508 20.8697 23.4952 21.6857 22.9103V18.5241H14.9942Z" fill="#8D68D6"/>
<path d="M42.9231 24.9504C43.7799 24.9504 44.6707 24.7736 45.5956 24.42C46.534 24.0528 47.2957 23.5904 47.8805 23.0327L51.7771 27.0109C50.8522 27.9902 49.5602 28.7926 47.9009 29.4182C46.2552 30.0438 44.6095 30.3567 42.9639 30.3567C40.8558 30.3567 38.9177 29.867 37.1496 28.8878C35.3951 27.9086 34.0147 26.5553 33.0082 24.828C32.0154 23.1416 31.519 21.1967 31.519 18.9934C31.519 16.8717 32.0018 14.9472 32.9674 13.2199C33.9331 11.4926 35.2727 10.1394 36.9864 9.16014C38.6185 8.2217 40.4954 7.75248 42.6171 7.75248C44.8475 7.75248 46.772 8.2897 48.3905 9.36415C50.009 10.425 51.2466 11.9619 52.1035 13.9747C52.9467 16.0556 53.3683 18.4085 53.3683 21.0335H37.782C38.1357 22.2439 38.7681 23.2028 39.6793 23.91C40.6042 24.6036 41.6854 24.9504 42.9231 24.9504ZM42.8823 13.1383C41.7262 13.1383 40.6994 13.4511 39.8017 14.0768C38.9041 14.7024 38.2581 15.5592 37.8636 16.6473H47.5133C47.1868 15.532 46.6224 14.6684 45.82 14.0564C45.0176 13.4443 44.0383 13.1383 42.8823 13.1383Z" fill="#8D68D6"/>
<path d="M68.8526 24.5016L70.3215 28.4594C69.6686 29.0306 68.8866 29.493 67.9754 29.8466C67.0777 30.1867 66.2005 30.3567 65.3436 30.3567C64.1196 30.3567 63.0111 30.0779 62.0183 29.5202C61.0391 28.9626 60.2706 28.1738 59.713 27.1537C59.1554 26.1473 58.8766 25.0116 58.8766 23.7468V13.1791H55.898V8.2421H58.8766V2.30544H64.7112V8.2421H69.4034V13.1791H64.7112V22.7879C64.7112 23.468 64.9084 24.046 65.3028 24.522C65.6973 24.9844 66.1869 25.2156 66.7717 25.2156C67.1933 25.2156 67.5877 25.1544 67.955 25.032C68.3358 24.896 68.635 24.7192 68.8526 24.5016Z" fill="#8D68D6"/>
<path d="M95.4554 7.75248C97.3322 7.75248 98.9915 8.1265 100.433 8.87453C101.875 9.60896 102.99 10.6698 103.779 12.0571C104.554 13.3763 104.942 15.0016 104.942 16.9329V29.8466H99.0459V27.6841C98.3115 28.5138 97.373 29.1666 96.2306 29.6426C95.0881 30.1187 93.9117 30.3567 92.7012 30.3567C91.1508 30.3567 89.7635 30.0711 88.5395 29.4998C87.3154 28.9286 86.3498 28.1126 85.6425 27.0517C84.9217 26.0045 84.5613 24.8076 84.5613 23.4612C84.5613 22.0875 84.9489 20.8566 85.7241 19.7686C86.4994 18.667 87.5874 17.8033 88.9883 17.1777C90.3619 16.5657 91.8784 16.2596 93.5377 16.2596C95.2785 16.2596 97.1146 16.6269 99.0459 17.3613V16.9329C99.0459 15.5864 98.6107 14.5324 97.7403 13.7707C96.8834 13.0091 95.6662 12.6283 94.0885 12.6283C92.3204 12.6283 90.4503 13.1451 88.4782 14.1788L86.4382 10.119C89.5663 8.54131 92.572 7.75248 95.4554 7.75248ZM94.0885 26.1337C95.3941 26.1337 96.5026 25.8481 97.4138 25.2768C98.3251 24.7056 98.8691 23.9576 99.0459 23.0327V21.0335C97.6451 20.503 96.1014 20.2378 94.4149 20.2378C93.6805 20.2378 93.0073 20.367 92.3952 20.6254C91.7968 20.8839 91.3208 21.2511 90.9672 21.7271C90.6135 22.2031 90.4367 22.7199 90.4367 23.2776C90.4367 24.1344 90.7767 24.828 91.4568 25.3584C92.1368 25.8753 93.014 26.1337 94.0885 26.1337Z" fill="#8D68D6"/>
<path d="M122.568 7.75248C124.091 7.75248 125.472 8.10609 126.71 8.81332C127.947 9.52056 128.906 10.4998 129.586 11.7511C130.266 13.0839 130.606 14.5324 130.606 16.0964V29.8466H124.71V17.4021C124.71 16.5181 124.54 15.736 124.2 15.056C123.86 14.376 123.384 13.8455 122.772 13.4647C122.147 13.0839 121.426 12.8935 120.61 12.8935C119.78 12.8935 119.018 13.0771 118.325 13.4443C117.631 13.8115 117.087 14.3148 116.693 14.954C116.298 15.5932 116.101 16.2937 116.101 17.0553V29.8466H110.001V0.632568H116.101V10.8738C116.795 9.92177 117.72 9.16694 118.876 8.60932C120.045 8.03809 121.276 7.75248 122.568 7.75248Z" fill="#8D68D6"/>
<path d="M145.948 24.9504C146.804 24.9504 147.695 24.7736 148.62 24.42C149.559 24.0528 150.32 23.5904 150.905 23.0327L154.802 27.0109C153.877 27.9902 152.585 28.7926 150.925 29.4182C149.28 30.0438 147.634 30.3567 145.988 30.3567C143.88 30.3567 141.942 29.867 140.174 28.8878C138.42 27.9086 137.039 26.5553 136.033 24.828C135.04 23.1416 134.543 21.1967 134.543 18.9934C134.543 16.8717 135.026 14.9472 135.992 13.2199C136.958 11.4926 138.297 10.1394 140.011 9.16014C141.643 8.2217 143.52 7.75248 145.642 7.75248C147.872 7.75248 149.797 8.2897 151.415 9.36415C153.033 10.425 154.271 11.9619 155.128 13.9747C155.971 16.0556 156.393 18.4085 156.393 21.0335H140.807C141.16 22.2439 141.793 23.2028 142.704 23.91C143.629 24.6036 144.71 24.9504 145.948 24.9504ZM145.907 13.1383C144.751 13.1383 143.724 13.4511 142.826 14.0768C141.929 14.7024 141.283 15.5592 140.888 16.6473H150.538C150.211 15.532 149.647 14.6684 148.844 14.0564C148.042 13.4443 147.063 13.1383 145.907 13.1383Z" fill="#8D68D6"/>
<path d="M170.163 7.75248C172.04 7.75248 173.7 8.1265 175.141 8.87453C176.583 9.60896 177.698 10.6698 178.487 12.0571C179.262 13.3763 179.65 15.0016 179.65 16.9329V29.8466H173.754V27.6841C173.02 28.5138 172.081 29.1666 170.939 29.6426C169.796 30.1187 168.62 30.3567 167.409 30.3567C165.859 30.3567 164.472 30.0711 163.248 29.4998C162.023 28.9286 161.058 28.1126 160.351 27.0517C159.63 26.0045 159.269 24.8076 159.269 23.4612C159.269 22.0875 159.657 20.8566 160.432 19.7686C161.207 18.667 162.295 17.8033 163.696 17.1777C165.07 16.5657 166.586 16.2596 168.246 16.2596C169.987 16.2596 171.823 16.6269 173.754 17.3613V16.9329C173.754 15.5864 173.319 14.5324 172.448 13.7707C171.591 13.0091 170.374 12.6283 168.797 12.6283C167.028 12.6283 165.158 13.1451 163.186 14.1788L161.146 10.119C164.274 8.54131 167.28 7.75248 170.163 7.75248ZM168.797 26.1337C170.102 26.1337 171.211 25.8481 172.122 25.2768C173.033 24.7056 173.577 23.9576 173.754 23.0327V21.0335C172.353 20.503 170.809 20.2378 169.123 20.2378C168.389 20.2378 167.715 20.367 167.103 20.6254C166.505 20.8839 166.029 21.2511 165.675 21.7271C165.322 22.2031 165.145 22.7199 165.145 23.2776C165.145 24.1344 165.485 24.828 166.165 25.3584C166.845 25.8753 167.722 26.1337 168.797 26.1337Z" fill="#8D68D6"/>
<path d="M200.928 0.632568H207.028V29.8466H200.928V26.7457C200.071 27.9018 199.017 28.7926 197.766 29.4182C196.515 30.0438 195.141 30.3567 193.645 30.3567C191.754 30.3567 190.047 29.8806 188.524 28.9286C187.015 27.963 185.838 26.6097 184.995 24.8688C184.138 23.196 183.71 21.2511 183.71 19.0342C183.71 16.8717 184.131 14.9268 184.974 13.1995C185.831 11.4722 187.021 10.1258 188.545 9.16014C190.041 8.2217 191.741 7.75248 193.645 7.75248C195.141 7.75248 196.515 8.06529 197.766 8.69092C199.017 9.30295 200.071 10.187 200.928 11.343V0.632568ZM195.399 25.2156C196.46 25.2156 197.412 24.9572 198.255 24.4404C199.099 23.91 199.758 23.1756 200.234 22.2371C200.697 21.3259 200.928 20.2582 200.928 19.0342C200.928 17.8645 200.69 16.8105 200.214 15.872C199.751 14.9336 199.099 14.1992 198.255 13.6687C197.412 13.1519 196.46 12.8935 195.399 12.8935C194.298 12.8935 193.305 13.1519 192.421 13.6687C191.55 14.1856 190.87 14.9064 190.381 15.8312C189.891 16.7697 189.646 17.8373 189.646 19.0342C189.646 20.2174 189.891 21.2851 190.381 22.2371C190.87 23.1756 191.55 23.9032 192.421 24.42C193.291 24.9504 194.284 25.2156 195.399 25.2156Z" fill="#8D68D6"/>
<path d="M215.841 30.3567C215.147 30.3567 214.501 30.1867 213.903 29.8466C213.318 29.493 212.849 29.0102 212.495 28.3982C212.142 27.7998 211.965 27.1537 211.965 26.4601C211.965 25.8073 212.135 25.1952 212.475 24.624C212.828 24.0528 213.304 23.5972 213.903 23.2572C214.488 22.9171 215.134 22.7471 215.841 22.7471C216.494 22.7471 217.106 22.9171 217.677 23.2572C218.248 23.5972 218.704 24.0528 219.044 24.624C219.384 25.168 219.554 25.7801 219.554 26.4601C219.554 27.1537 219.384 27.7998 219.044 28.3982C218.718 28.9966 218.269 29.4726 217.697 29.8262C217.099 30.1799 216.48 30.3567 215.841 30.3567Z" fill="#8D68D6"/>
</svg>
